<?xml version="1.0" encoding="UTF-8"?>
<svg xmlns="http://www.w3.org/2000/svg" xmlns:xlink="http://www.w3.org/1999/xlink" width="96px" height="96px" viewBox="0 0 96 96" version="1.1">
<g id="surface1">
<path style=" stroke:none;fill-rule:nonzero;fill:rgb(14.901961%,30.196078%,89.411765%);fill-opacity:1;" d="M 47.957031 95.757812 L 20.253906 88.066406 L 14.082031 18.816406 L 81.917969 18.816406 L 75.738281 88.054688 Z M 47.957031 95.757812 "/>
<path style=" stroke:none;fill-rule:nonzero;fill:rgb(16.078431%,39.607843%,94.509804%);fill-opacity:1;" d="M 70.449219 83.644531 L 75.730469 24.480469 L 48 24.480469 L 48 89.871094 Z M 70.449219 83.644531 "/>
<path style=" stroke:none;fill-rule:nonzero;fill:rgb(92.156863%,92.156863%,92.156863%);fill-opacity:1;" d="M 28.234375 50.164062 L 28.996094 58.65625 L 48 58.65625 L 48 50.164062 Z M 28.234375 50.164062 "/>
<path style=" stroke:none;fill-rule:nonzero;fill:rgb(92.156863%,92.156863%,92.156863%);fill-opacity:1;" d="M 26.703125 32.972656 L 27.476562 41.464844 L 48 41.464844 L 48 32.972656 Z M 26.703125 32.972656 "/>
<path style=" stroke:none;fill-rule:nonzero;fill:rgb(92.156863%,92.156863%,92.156863%);fill-opacity:1;" d="M 48 72.222656 L 47.964844 72.230469 L 38.503906 69.675781 L 37.898438 62.902344 L 29.375 62.902344 L 30.5625 76.238281 L 47.960938 81.066406 L 48 81.058594 Z M 48 72.222656 "/>
<path style=" stroke:none;fill-rule:nonzero;fill:rgb(0%,0%,0%);fill-opacity:1;" d="M 30.042969 0 L 40.332031 0 L 40.332031 4.300781 L 34.347656 4.300781 L 34.347656 8.605469 L 40.332031 8.605469 L 40.332031 12.902344 L 30.042969 12.902344 Z M 30.042969 0 "/>
<path style=" stroke:none;fill-rule:nonzero;fill:rgb(0%,0%,0%);fill-opacity:1;" d="M 42.386719 0 L 52.675781 0 L 52.675781 3.738281 L 46.691406 3.738281 L 46.691406 4.488281 L 52.675781 4.488281 L 52.675781 13.089844 L 42.386719 13.089844 L 42.386719 9.164062 L 48.375 9.164062 L 48.375 8.417969 L 42.386719 8.417969 Z M 42.386719 0 "/>
<path style=" stroke:none;fill-rule:nonzero;fill:rgb(0%,0%,0%);fill-opacity:1;" d="M 54.730469 0 L 65.019531 0 L 65.019531 3.738281 L 59.035156 3.738281 L 59.035156 4.488281 L 65.019531 4.488281 L 65.019531 13.089844 L 54.730469 13.089844 L 54.730469 9.164062 L 60.71875 9.164062 L 60.71875 8.417969 L 54.730469 8.417969 Z M 54.730469 0 "/>
<path style=" stroke:none;fill-rule:nonzero;fill:rgb(100%,100%,100%);fill-opacity:1;" d="M 67.714844 50.164062 L 69.246094 32.972656 L 47.972656 32.972656 L 47.972656 41.464844 L 59.9375 41.464844 L 59.164062 50.164062 L 47.972656 50.164062 L 47.972656 58.65625 L 58.429688 58.65625 L 57.441406 69.671875 L 47.972656 72.226562 L 47.972656 81.0625 L 65.382812 76.238281 L 65.511719 74.804688 L 67.503906 52.445312 Z M 67.714844 50.164062 "/>
</g>
</svg>
