<?xml version="1.0" encoding="UTF-8"?>
<svg xmlns="http://www.w3.org/2000/svg" xmlns:xlink="http://www.w3.org/1999/xlink" width="96px" height="96px" viewBox="0 0 96 96" version="1.1">
<g id="surface1">
<path style=" stroke:none;fill-rule:nonzero;fill:rgb(89.411765%,30.196078%,14.901961%);fill-opacity:1;" d="M 81.917969 18.816406 L 75.738281 88.054688 L 47.957031 95.757812 L 20.253906 88.066406 L 14.082031 18.816406 Z M 81.917969 18.816406 "/>
<path style=" stroke:none;fill-rule:nonzero;fill:rgb(94.509804%,39.607843%,16.078431%);fill-opacity:1;" d="M 48 89.871094 L 70.449219 83.644531 L 75.730469 24.480469 L 48 24.480469 Z M 48 89.871094 "/>
<path style=" stroke:none;fill-rule:nonzero;fill:rgb(92.156863%,92.156863%,92.156863%);fill-opacity:1;" d="M 35.984375 41.464844 L 48 41.464844 L 48 32.972656 L 26.703125 32.972656 L 26.90625 35.253906 L 28.996094 58.65625 L 48 58.65625 L 48 50.164062 L 36.761719 50.164062 Z M 35.984375 41.464844 "/>
<path style=" stroke:none;fill-rule:nonzero;fill:rgb(92.156863%,92.156863%,92.156863%);fill-opacity:1;" d="M 37.898438 62.902344 L 29.375 62.902344 L 30.5625 76.238281 L 47.960938 81.066406 L 48 81.058594 L 48 72.222656 L 47.964844 72.230469 L 38.503906 69.675781 Z M 37.898438 62.902344 "/>
<path style=" stroke:none;fill-rule:nonzero;fill:rgb(0%,0%,0%);fill-opacity:1;" d="M 20.390625 0 L 24.707031 0 L 24.707031 4.261719 L 28.65625 4.261719 L 28.65625 0 L 32.972656 0 L 32.972656 12.914062 L 28.65625 12.914062 L 28.65625 8.589844 L 24.707031 8.589844 L 24.707031 12.914062 L 20.390625 12.914062 Z M 20.390625 0 "/>
<path style=" stroke:none;fill-rule:nonzero;fill:rgb(0%,0%,0%);fill-opacity:1;" d="M 38.648438 4.28125 L 34.847656 4.28125 L 34.847656 0 L 46.765625 0 L 46.765625 4.28125 L 42.964844 4.28125 L 42.964844 12.914062 L 38.648438 12.914062 Z M 38.648438 4.28125 "/>
<path style=" stroke:none;fill-rule:nonzero;fill:rgb(0%,0%,0%);fill-opacity:1;" d="M 48.65625 0 L 53.15625 0 L 55.925781 4.535156 L 58.691406 0 L 63.191406 0 L 63.191406 12.914062 L 58.894531 12.914062 L 58.894531 6.511719 L 55.925781 11.105469 L 55.851562 11.105469 L 52.878906 6.511719 L 52.878906 12.914062 L 48.65625 12.914062 Z M 48.65625 0 "/>
<path style=" stroke:none;fill-rule:nonzero;fill:rgb(0%,0%,0%);fill-opacity:1;" d="M 65.339844 0 L 69.660156 0 L 69.660156 8.644531 L 75.730469 8.644531 L 75.730469 12.914062 L 65.339844 12.914062 Z M 65.339844 0 "/>
<path style=" stroke:none;fill-rule:nonzero;fill:rgb(100%,100%,100%);fill-opacity:1;" d="M 47.972656 58.65625 L 58.429688 58.65625 L 57.441406 69.671875 L 47.972656 72.226562 L 47.972656 81.0625 L 65.382812 76.238281 L 65.511719 74.804688 L 67.503906 52.445312 L 67.714844 50.164062 L 47.972656 50.164062 Z M 47.972656 58.65625 "/>
<path style=" stroke:none;fill-rule:nonzero;fill:rgb(100%,100%,100%);fill-opacity:1;" d="M 47.972656 41.445312 L 47.972656 41.464844 L 68.484375 41.464844 L 68.65625 39.558594 L 69.042969 35.253906 L 69.246094 32.972656 L 47.972656 32.972656 Z M 47.972656 41.445312 "/>
</g>
</svg>
