<?xml version="1.0" encoding="UTF-8"?>
<svg xmlns="http://www.w3.org/2000/svg" xmlns:xlink="http://www.w3.org/1999/xlink" width="96px" height="96px" viewBox="0 0 96 96" version="1.1">
<g id="surface1">
<path style=" stroke:none;fill-rule:nonzero;fill:rgb(91.764706%,10.588235%,13.333333%);fill-opacity:1;" d="M 41.441406 49.839844 L 47.785156 49.839844 L 44.433594 44.441406 L 38.277344 54.199219 L 35.476562 54.199219 L 42.964844 42.480469 C 43.289062 42.003906 43.832031 41.71875 44.433594 41.71875 C 45.015625 41.71875 45.558594 41.996094 45.871094 42.457031 L 53.390625 54.199219 L 50.589844 54.199219 L 49.269531 52.019531 L 42.84375 52.019531 Z M 70.546875 52.019531 L 70.546875 41.835938 L 68.167969 41.835938 L 68.167969 53.015625 C 68.167969 53.320312 68.289062 53.617188 68.515625 53.84375 C 68.742188 54.070312 69.046875 54.199219 69.382812 54.199219 L 80.222656 54.199219 L 81.625 52.019531 Z M 31.214844 50.191406 C 33.519531 50.191406 35.394531 48.328125 35.394531 46.019531 C 35.394531 43.710938 33.519531 41.835938 31.214844 41.835938 L 20.8125 41.835938 L 20.8125 54.199219 L 23.191406 54.199219 L 23.191406 44.019531 L 31.054688 44.019531 C 32.160156 44.019531 33.050781 44.914062 33.050781 46.019531 C 33.050781 47.125 32.160156 48.023438 31.054688 48.023438 L 24.355469 48.011719 L 31.449219 54.199219 L 34.902344 54.199219 L 30.128906 50.191406 Z M 6.183594 54.199219 C 2.769531 54.199219 0 51.4375 0 48.023438 C 0 44.609375 2.769531 41.835938 6.183594 41.835938 L 13.367188 41.835938 C 16.78125 41.835938 19.546875 44.609375 19.546875 48.023438 C 19.546875 51.4375 16.78125 54.199219 13.367188 54.199219 Z M 13.207031 52.019531 C 15.417969 52.019531 17.207031 50.230469 17.207031 48.023438 C 17.207031 45.8125 15.417969 44.019531 13.207031 44.019531 L 6.339844 44.019531 C 4.128906 44.019531 2.339844 45.8125 2.339844 48.023438 C 2.339844 50.230469 4.128906 52.019531 6.339844 52.019531 Z M 58.355469 54.199219 C 54.941406 54.199219 52.167969 51.4375 52.167969 48.023438 C 52.167969 44.609375 54.941406 41.835938 58.355469 41.835938 L 66.886719 41.835938 L 65.496094 44.019531 L 58.511719 44.019531 C 56.300781 44.019531 54.503906 45.8125 54.503906 48.023438 C 54.503906 50.230469 56.300781 52.019531 58.511719 52.019531 L 67.082031 52.019531 L 65.683594 54.199219 Z M 87.425781 52.019531 C 85.601562 52.019531 84.050781 50.792969 83.578125 49.105469 L 93.738281 49.105469 L 95.140625 46.925781 L 83.578125 46.925781 C 84.050781 45.25 85.601562 44.019531 87.425781 44.019531 L 94.402344 44.019531 L 95.8125 41.835938 L 87.269531 41.835938 C 83.855469 41.835938 81.082031 44.609375 81.082031 48.023438 C 81.082031 51.4375 83.855469 54.199219 87.269531 54.199219 L 94.597656 54.199219 L 96 52.019531 Z M 87.425781 52.019531 "/>
</g>
</svg>
