<?xml version="1.0" encoding="UTF-8"?>
<svg xmlns="http://www.w3.org/2000/svg" xmlns:xlink="http://www.w3.org/1999/xlink" width="96px" height="96px" viewBox="0 0 96 96" version="1.1">
<g id="surface1">
<path style=" stroke:none;fill-rule:nonzero;fill:rgb(42.745098%,70.196078%,24.705882%);fill-opacity:1;" d="M 14.605469 13.457031 C 33.570312 -4.917969 63.898438 -4.425781 82.273438 14.640625 C 84.347656 11.875 86.128906 8.8125 87.410156 5.652344 C 93.4375 24.027344 97.089844 39.433594 95.707031 51.390625 C 95.019531 61.464844 91.066406 71.144531 84.546875 78.851562 C 67.554688 99.003906 37.324219 101.574219 17.171875 84.582031 L 16.785156 84.238281 L 16.765625 84.226562 C 16.703125 84.183594 16.640625 84.136719 16.582031 84.089844 C 16.394531 83.945312 16.230469 83.789062 16.078125 83.621094 L 16.023438 83.5625 L 15.394531 83.003906 C 14.777344 82.472656 14.164062 81.949219 13.621094 81.351562 L 13.417969 81.125 C -4.957031 62.15625 -4.363281 31.828125 14.605469 13.457031 Z M 21.714844 77.765625 C 19.9375 76.382812 17.371094 76.582031 15.988281 78.359375 C 14.769531 79.921875 14.777344 82.097656 16.003906 83.539062 L 16.023438 83.5625 L 16.785156 84.238281 L 16.863281 84.289062 C 18.589844 85.425781 20.910156 85.191406 22.238281 83.585938 L 22.308594 83.496094 C 23.691406 81.714844 23.394531 79.148438 21.714844 77.765625 Z M 86.917969 10.589844 C 81.976562 20.964844 69.726562 28.863281 59.15625 31.335938 C 49.179688 33.707031 40.488281 31.730469 31.300781 35.285156 C 10.355469 43.289062 10.75 68.183594 22.210938 73.816406 L 22.902344 74.207031 C 22.902344 74.207031 31.179688 72.5625 39.363281 70.390625 L 40.066406 70.203125 C 43.335938 69.320312 46.550781 68.363281 49.179688 67.394531 C 62.8125 62.355469 77.828125 49.90625 82.769531 35.484375 C 80.199219 50.5 67.257812 65.023438 54.316406 71.640625 C 47.402344 75.199219 42.066406 75.988281 30.707031 79.941406 C 29.324219 80.433594 28.238281 80.925781 28.238281 80.925781 C 28.375 80.910156 28.511719 80.886719 28.652344 80.871094 L 28.925781 80.835938 L 29.203125 80.800781 C 31.710938 80.488281 33.964844 80.332031 33.964844 80.332031 C 50.066406 79.542969 75.359375 84.878906 87.113281 69.171875 C 99.167969 53.167969 92.449219 27.285156 86.917969 10.589844 Z M 86.917969 10.589844 "/>
<path style=" stroke:none;fill-rule:nonzero;fill:rgb(100%,100%,100%);fill-opacity:1;" d="M 21.714844 77.765625 C 23.394531 79.148438 23.691406 81.714844 22.308594 83.496094 C 20.925781 85.273438 18.355469 85.472656 16.582031 84.089844 C 14.800781 82.707031 14.605469 80.136719 15.988281 78.359375 C 17.371094 76.582031 19.9375 76.382812 21.714844 77.765625 Z M 86.917969 10.589844 C 92.449219 27.285156 99.167969 53.167969 87.113281 69.171875 C 75.359375 84.878906 50.066406 79.542969 33.964844 80.332031 C 33.964844 80.332031 31.710938 80.488281 29.203125 80.800781 L 28.925781 80.835938 C 28.699219 80.863281 28.46875 80.894531 28.238281 80.925781 C 28.238281 80.925781 29.324219 80.433594 30.707031 79.941406 C 42.066406 75.988281 47.402344 75.199219 54.316406 71.640625 C 67.257812 65.023438 80.199219 50.5 82.769531 35.484375 C 77.828125 49.90625 62.8125 62.355469 49.179688 67.394531 C 39.792969 70.851562 22.902344 74.207031 22.902344 74.207031 L 22.210938 73.816406 C 10.75 68.183594 10.355469 43.289062 31.300781 35.285156 C 40.488281 31.730469 49.179688 33.707031 59.15625 31.335938 C 69.726562 28.863281 81.976562 20.964844 86.917969 10.589844 Z M 86.917969 10.589844 "/>
</g>
</svg>
